<svg id="Layer_1" enable-background="new 0 0 512 512" height="512" viewBox="0 0 512 512" width="512" xmlns="http://www.w3.org/2000/svg"><g id="XMLID_582_"><path id="XMLID_3082_" d="m292 250.333v39.667h75.833c55.321 0 100.167 44.846 100.167 100.167v111.833h-424v-111.833c0-55.321 44.846-100.167 100.167-100.167h75.833v-39.667z" fill="#faf7f5"/><path id="XMLID_2193_" d="m291.911 290.403.403-.403h-.314v-39.667h-72v39.667h-.314l.403.403h-23.589c0 32.861 26.639 59.5 59.5 59.5s59.5-26.639 59.5-59.5z" fill="#efb789"/><g id="XMLID_1900_"><path id="XMLID_1901_" d="m120 406h272v96h-272z" fill="#8aa8bd"/></g><path id="XMLID_1899_" d="m142 290.403h44v115.597h-44z" fill="#8aa8bd"/><path id="XMLID_1897_" d="m326 290.403h44v115.597h-44z" fill="#8aa8bd" transform="matrix(-1 0 0 -1 696 696.403)"/><path id="XMLID_3080_" d="m174.977 109.466v81.844c0 44.748 36.275 81.023 81.023 81.023 44.748 0 81.023-36.275 81.023-81.023v-81.844z" fill="#f3c9a6"/><path id="XMLID_415_" d="m309.273 142.269h-106.546c-18.499 0-33.495-14.996-33.495-33.495v-8.831h173.537v8.831c-.001 18.499-14.997 33.495-33.496 33.495z" fill="#ff9171"/><path id="XMLID_80_" d="m256 10c-47.921 0-86.769 38.848-86.769 86.768v3.175h173.537v-3.175c0-47.92-38.847-86.768-86.768-86.768z" fill="#ff9171"/><g id="XMLID_366_"><path id="XMLID_367_" d="m163.67 438c-2.64 0-5.21 1.07-7.07 2.93-1.87 1.86-2.93 4.44-2.93 7.07s1.06 5.21 2.93 7.07c1.86 1.86 4.431 2.93 7.07 2.93 2.63 0 5.2-1.07 7.07-2.93 1.859-1.86 2.93-4.44 2.93-7.07s-1.07-5.21-2.93-7.07-4.44-2.93-7.07-2.93z"/><path id="XMLID_443_" d="m348.33 438c-2.63 0-5.2 1.07-7.07 2.93-1.86 1.86-2.93 4.44-2.93 7.07s1.069 5.21 2.93 7.07 4.44 2.93 7.07 2.93c2.64 0 5.21-1.07 7.069-2.93 1.87-1.86 2.931-4.44 2.931-7.07s-1.061-5.21-2.931-7.07c-1.859-1.86-4.439-2.93-7.069-2.93z"/><path id="XMLID_1060_" d="m468 425.167c-5.522 0-10 4.477-10 10v56.833h-56v-86c0-5.523-4.478-10-10-10h-12v-95.187c29.733 3.96 55.481 22.314 68.927 49.884 1.733 3.553 5.292 5.619 8.996 5.619 1.471 0 2.965-.326 4.376-1.015 4.964-2.421 7.025-8.408 4.604-13.372-8.919-18.287-22.718-33.746-39.902-44.707-17.666-11.266-38.126-17.222-59.168-17.222h-65.833v-10.174c26.916-15.83 45.023-45.095 45.023-78.515v-60.974c3.648-6.361 5.745-13.719 5.745-21.563v-12.005c.001-53.359-43.41-96.769-96.768-96.769s-96.769 43.41-96.769 96.769v12.005c0 7.844 2.097 15.202 5.745 21.563v60.974c0 33.42 18.107 62.685 45.023 78.515v10.174h-65.833c-60.745 0-110.166 49.42-110.166 110.167v111.833c0 5.523 4.478 10 10 10h424c5.522 0 10-4.477 10-10v-66.833c0-5.523-4.478-10-10-10zm-272-29.167v-70.586c12.072 20.609 34.439 34.49 60 34.49s47.928-13.88 60-34.49v70.586zm-44-95.597h24v95.597h-24zm184 0h24v95.597h-24zm-156.74-190.46h153.48c-.612 12.414-10.903 22.326-23.467 22.326h-106.546c-12.564 0-22.855-9.912-23.467-22.326zm76.74-89.943c40.031 0 73.004 30.797 76.468 69.943h-152.936c3.464-39.146 36.437-69.943 76.468-69.943zm-71.023 171.311v-42.844c5.425 2.435 11.429 3.802 17.75 3.802h106.547c6.321 0 12.325-1.367 17.75-3.802v42.844c0 39.162-31.861 71.023-71.023 71.023s-71.024-31.861-71.024-71.023zm35.023 108.689c5.522 0 10-4.477 10-10v-11.456c8.242 2.461 16.968 3.79 26 3.79s17.758-1.329 26-3.79v11.456c0 5.523 4.478 10 10 10h12.558c-4.482 22.716-24.547 39.903-48.558 39.903s-44.076-17.187-48.558-39.903zm-166 90.167c0-45.592 34.016-83.383 78-89.343v95.176h-12c-5.522 0-10 4.477-10 10v86h-56zm76 101.833v-76h252v76z"/><path id="XMLID_1367_" d="m458 390.17c0 2.63 1.069 5.21 2.93 7.07s4.44 2.93 7.07 2.93 5.21-1.07 7.069-2.93c1.86-1.87 2.931-4.44 2.931-7.07 0-2.64-1.07-5.21-2.931-7.07-1.859-1.87-4.439-2.93-7.069-2.93s-5.21 1.06-7.07 2.93c-1.861 1.86-2.93 4.43-2.93 7.07z"/><path id="XMLID_1368_" d="m272.777 226.083c3.905-3.905 3.905-10.237 0-14.143-3.906-3.905-10.236-3.905-14.143 0-1.453 1.453-3.816 1.453-5.27 0-3.906-3.905-10.236-3.905-14.143 0-3.905 3.905-3.905 10.237 0 14.143 4.626 4.625 10.701 6.938 16.777 6.938s12.153-2.313 16.779-6.938z"/></g></g></svg>